<svg width="1600" height="1100" viewBox="0 0 1600 1100" fill="none" xmlns="http://www.w3.org/2000/svg">
  <defs>
    <linearGradient id="bg" x1="160" y1="60" x2="1430" y2="1080" gradientUnits="userSpaceOnUse">
      <stop stop-color="#0D0B0C"/>
      <stop offset="0.55" stop-color="#080809"/>
      <stop offset="1" stop-color="#180506"/>
    </linearGradient>
    <linearGradient id="shell" x1="78" y1="62" x2="1510" y2="1030" gradientUnits="userSpaceOnUse">
      <stop stop-color="#151518"/>
      <stop offset="1" stop-color="#0D0D10"/>
    </linearGradient>
    <linearGradient id="sidebar" x1="92" y1="118" x2="300" y2="1028" gradientUnits="userSpaceOnUse">
      <stop stop-color="#121216"/>
      <stop offset="1" stop-color="#09090C"/>
    </linearGradient>
    <linearGradient id="hero" x1="326" y1="126" x2="1490" y2="278" gradientUnits="userSpaceOnUse">
      <stop stop-color="#1B0B0B"/>
      <stop offset="1" stop-color="#0E0E11"/>
    </linearGradient>
    <linearGradient id="accent" x1="364" y1="308" x2="600" y2="430" gradientUnits="userSpaceOnUse">
      <stop stop-color="#FF8D75"/>
      <stop offset="0.55" stop-color="#EF3B24"/>
      <stop offset="1" stop-color="#8A0000"/>
    </linearGradient>
    <linearGradient id="dragonFill" x1="54" y1="34" x2="171" y2="184" gradientUnits="userSpaceOnUse">
      <stop stop-color="#FFB9A8"/>
      <stop offset="0.56" stop-color="#F03A24"/>
      <stop offset="1" stop-color="#870000"/>
    </linearGradient>
    <filter id="shadow" x="24" y="30" width="1552" height="1048" filterUnits="userSpaceOnUse" color-interpolation-filters="sRGB">
      <feFlood flood-opacity="0" result="BackgroundImageFix"/>
      <feColorMatrix in="SourceAlpha" type="matrix" values="0 0 0 0 0 0 0 0 0 0 0 0 0 0 0 0 0 0 127 0" result="hardAlpha"/>
      <feOffset dy="16"/>
      <feGaussianBlur stdDeviation="24"/>
      <feColorMatrix type="matrix" values="0 0 0 0 0.031 0 0 0 0 0.031 0 0 0 0 0.039 0 0 0 0.48 0"/>
      <feBlend mode="normal" in2="BackgroundImageFix" result="effect1_dropShadow_0_1"/>
      <feBlend mode="normal" in="SourceGraphic" in2="effect1_dropShadow_0_1" result="shape"/>
    </filter>
  </defs>

  <rect width="1600" height="1100" fill="url(#bg)"/>
  <circle cx="214" cy="138" r="188" fill="#FF5B39" fill-opacity="0.12"/>
  <circle cx="1370" cy="124" r="150" fill="#8B0000" fill-opacity="0.16"/>

  <g filter="url(#shadow)">
    <rect x="72" y="62" width="1456" height="966" rx="34" fill="url(#shell)" stroke="rgba(255,255,255,0.06)"/>
    <rect x="72" y="62" width="1456" height="56" rx="34" fill="#181418"/>
    <circle cx="112" cy="90" r="8" fill="#FF6D52"/>
    <circle cx="138" cy="90" r="8" fill="#8F2A1F"/>
    <circle cx="164" cy="90" r="8" fill="#4A0F0F"/>
    <rect x="426" y="77" width="756" height="26" rx="13" fill="#100F12"/>
    <rect x="92" y="118" width="220" height="910" rx="28" fill="url(#sidebar)" stroke="rgba(255,255,255,0.05)"/>

    <rect x="326" y="126" width="1172" height="150" rx="28" fill="url(#hero)" stroke="rgba(255,120,87,0.14)"/>
    <rect x="326" y="294" width="1172" height="160" rx="28" fill="#121216" stroke="rgba(255,255,255,0.05)"/>
    <rect x="326" y="476" width="744" height="224" rx="28" fill="#121216" stroke="rgba(255,255,255,0.05)"/>
    <rect x="1090" y="476" width="408" height="224" rx="28" fill="#121216" stroke="rgba(255,255,255,0.05)"/>
    <rect x="326" y="722" width="1172" height="274" rx="28" fill="#121216" stroke="rgba(255,255,255,0.05)"/>
  </g>

  <rect x="346" y="314" width="260" height="120" rx="24" fill="url(#accent)"/>
  <rect x="626" y="314" width="260" height="120" rx="24" fill="#17171A" stroke="rgba(255,255,255,0.08)"/>
  <rect x="906" y="314" width="260" height="120" rx="24" fill="#17171A" stroke="rgba(255,255,255,0.08)"/>
  <rect x="1186" y="314" width="292" height="120" rx="24" fill="#17171A" stroke="rgba(255,255,255,0.08)"/>

  <rect x="104" y="146" width="56" height="56" rx="18" fill="#111114" stroke="rgba(255,120,87,0.22)"/>
  <path d="M147 158c-5-2-11-2-16 1-5 2-8 7-11 11l-8-1 5 5-4 6 8-1c1 6 5 11 11 13 4 1 10 1 15-1-3-1-5-3-6-6l7 1-4-6 5-4-8-1c1-6-1-12-4-17z" fill="#EF3B24"/>
  <path d="M139 162c-6 1-11 5-14 11l6 1-5 5 7-1c0 5 3 9 7 12-1-4 0-8 3-10 3-3 4-7 4-12 0-2-1-4-2-6l-4 2-2-2z" fill="#1A0303" fill-opacity="0.82"/>
  <circle cx="138" cy="168" r="2.2" fill="#FFF3EF"/>
  <text x="174" y="164" fill="#B9ACA6" font-family="Inter, Arial, sans-serif" font-size="12" letter-spacing="2.4">DRAGON IDEA ENGINE</text>
  <text x="174" y="194" fill="#F6EFEB" font-family="Inter, Arial, sans-serif" font-size="28" font-weight="700">Idea Foundry</text>

  <rect x="104" y="244" width="176" height="42" rx="14" fill="rgba(239,59,36,0.18)" stroke="rgba(239,59,36,0.28)"/>
  <text x="126" y="271" fill="#FFE6E0" font-family="Inter, Arial, sans-serif" font-size="15" font-weight="700">Dashboard</text>
  <text x="126" y="321" fill="#E9DFDA" font-family="Inter, Arial, sans-serif" font-size="15">Submit Idea</text>
  <text x="126" y="365" fill="#E9DFDA" font-family="Inter, Arial, sans-serif" font-size="15">Idea Queue</text>
  <text x="126" y="409" fill="#E9DFDA" font-family="Inter, Arial, sans-serif" font-size="15">Projects</text>
  <text x="126" y="453" fill="#E9DFDA" font-family="Inter, Arial, sans-serif" font-size="15">Idea Detail</text>

  <rect x="104" y="534" width="176" height="182" rx="18" fill="#141417" stroke="rgba(255,255,255,0.08)"/>
  <text x="122" y="560" fill="#B9ACA6" font-family="Inter, Arial, sans-serif" font-size="11" letter-spacing="2.2">CONTROL PANEL</text>
  <text x="122" y="595" fill="#F6EFEB" font-family="Inter, Arial, sans-serif" font-size="14">What is in progress?</text>
  <text x="122" y="628" fill="#F6EFEB" font-family="Inter, Arial, sans-serif" font-size="14">What is next in queue?</text>
  <text x="122" y="661" fill="#F6EFEB" font-family="Inter, Arial, sans-serif" font-size="14">When will MVP land?</text>
  <text x="122" y="694" fill="#F6EFEB" font-family="Inter, Arial, sans-serif" font-size="14">Which build lane fits?</text>

  <rect x="104" y="734" width="176" height="170" rx="18" fill="#141417" stroke="rgba(255,255,255,0.08)"/>
  <text x="122" y="760" fill="#B9ACA6" font-family="Inter, Arial, sans-serif" font-size="11" letter-spacing="2.2">CURRENT UI WORK</text>
  <text x="122" y="793" fill="#F6EFEB" font-family="Inter, Arial, sans-serif" font-size="14">#349 Dashboard shell</text>
  <text x="122" y="826" fill="#F6EFEB" font-family="Inter, Arial, sans-serif" font-size="14">#352 Idea Queue</text>
  <text x="122" y="859" fill="#F6EFEB" font-family="Inter, Arial, sans-serif" font-size="14">#353 Wizard routing</text>
  <text x="122" y="892" fill="#F6EFEB" font-family="Inter, Arial, sans-serif" font-size="14">#354 Health telemetry</text>

  <text x="356" y="158" fill="#B9ACA6" font-family="Inter, Arial, sans-serif" font-size="12" letter-spacing="2.4">DASHBOARD</text>
  <text x="356" y="212" fill="#FFF6F1" font-family="Georgia, serif" font-size="48">Ideas route into the right build lane</text>
  <text x="356" y="248" fill="#FFF6F1" font-family="Georgia, serif" font-size="48">and move toward MVP in full view.</text>
  <rect x="1268" y="152" width="182" height="46" rx="23" fill="#EF3B24"/>
  <text x="1359" y="181" text-anchor="middle" fill="#FFF5F2" font-family="Inter, Arial, sans-serif" font-size="15" font-weight="700">Submit Idea</text>
  <rect x="1268" y="208" width="182" height="46" rx="23" fill="#151519" stroke="rgba(255,255,255,0.12)"/>
  <text x="1359" y="237" text-anchor="middle" fill="#F2E8E3" font-family="Inter, Arial, sans-serif" font-size="15" font-weight="700">Open Queue</text>

  <circle cx="1110" cy="198" r="72" fill="rgba(239,59,36,0.08)"/>
  <path d="M1160 160c-16-8-36-9-54-2-17 7-30 21-40 37l-27-4 18 18-13 20 24-4c3 21 17 39 37 48 16 6 35 7 54 0-11-4-19-12-24-23l24 3-14-18 18-14-26-4c6-18 4-38-3-57z" fill="url(#dragonFill)"/>
  <path d="M1126 172c-19 3-35 15-45 33l20 3-15 15 21-3c0 15 8 29 19 39-3-13 1-26 10-34 9-10 14-22 14-38 0-7-2-13-5-19l-12 6-7-5z" fill="#180303" fill-opacity="0.84"/>
  <circle cx="1125" cy="188" r="5.5" fill="#FFF2EF"/>

  <text x="370" y="340" fill="#FFD7CF" font-family="Inter, Arial, sans-serif" font-size="12" letter-spacing="2.2">LOOP HEALTH</text>
  <text x="370" y="386" fill="#FFFDF8" font-family="Inter, Arial, sans-serif" font-size="34" font-weight="700">idle</text>
  <text x="370" y="414" fill="#F7D8D2" font-family="Inter, Arial, sans-serif" font-size="15">No queued work and no active issue workflows.</text>

  <text x="646" y="340" fill="#B9ACA6" font-family="Inter, Arial, sans-serif" font-size="12" letter-spacing="2.2">SERVICES</text>
  <text x="646" y="386" fill="#F6EFEB" font-family="Inter, Arial, sans-serif" font-size="34" font-weight="700">2 / 4 healthy</text>
  <text x="646" y="414" fill="#B9ACA6" font-family="Inter, Arial, sans-serif" font-size="15">Orchestrator is loading backlog stories.</text>

  <text x="926" y="340" fill="#B9ACA6" font-family="Inter, Arial, sans-serif" font-size="12" letter-spacing="2.2">CPU</text>
  <text x="926" y="386" fill="#F6EFEB" font-family="Inter, Arial, sans-serif" font-size="34" font-weight="700">14%</text>
  <text x="926" y="414" fill="#B9ACA6" font-family="Inter, Arial, sans-serif" font-size="15">14-core host</text>

  <text x="1206" y="340" fill="#B9ACA6" font-family="Inter, Arial, sans-serif" font-size="12" letter-spacing="2.2">MEMORY</text>
  <text x="1206" y="386" fill="#F6EFEB" font-family="Inter, Arial, sans-serif" font-size="34" font-weight="700">9%</text>
  <text x="1206" y="414" fill="#B9ACA6" font-family="Inter, Arial, sans-serif" font-size="15">14.3 GB free of 15.7 GB</text>

  <text x="352" y="510" fill="#B9ACA6" font-family="Inter, Arial, sans-serif" font-size="12" letter-spacing="2.2">PRINTING NOW</text>
  <text x="352" y="548" fill="#F6EFEB" font-family="Inter, Arial, sans-serif" font-size="26" font-weight="700">Active projects</text>
  <rect x="352" y="578" width="334" height="92" rx="20" fill="#17171A" stroke="rgba(255,255,255,0.08)"/>
  <text x="374" y="610" fill="#F6EFEB" font-family="Inter, Arial, sans-serif" font-size="17" font-weight="700">Pi-hosted Dragon Idea Engine</text>
  <text x="374" y="636" fill="#B9ACA6" font-family="Inter, Arial, sans-serif" font-size="14">Core software lane, status server, self-build loop</text>
  <rect x="586" y="594" width="78" height="28" rx="14" fill="rgba(239,59,36,0.18)" stroke="rgba(239,59,36,0.28)"/>
  <text x="625" y="613" text-anchor="middle" fill="#FFF1EE" font-family="Inter, Arial, sans-serif" font-size="12" font-weight="700">Idle</text>
  <text x="374" y="658" fill="#B9ACA6" font-family="Inter, Arial, sans-serif" font-size="13">Lane: Core Software</text>

  <rect x="706" y="578" width="334" height="92" rx="20" fill="#17171A" stroke="rgba(255,255,255,0.08)"/>
  <text x="728" y="610" fill="#F6EFEB" font-family="Inter, Arial, sans-serif" font-size="17" font-weight="700">Game-ready Project Intake</text>
  <text x="728" y="636" fill="#B9ACA6" font-family="Inter, Arial, sans-serif" font-size="14">Future specialist lane held at intake without pack install</text>
  <rect x="952" y="594" width="64" height="28" rx="14" fill="rgba(255,120,87,0.12)" stroke="rgba(255,120,87,0.24)"/>
  <text x="984" y="613" text-anchor="middle" fill="#FFD9D1" font-family="Inter, Arial, sans-serif" font-size="12" font-weight="700">Future</text>
  <text x="728" y="658" fill="#B9ACA6" font-family="Inter, Arial, sans-serif" font-size="13">Lane: Game Dev</text>

  <text x="1116" y="510" fill="#B9ACA6" font-family="Inter, Arial, sans-serif" font-size="12" letter-spacing="2.2">IDEA QUEUE</text>
  <text x="1116" y="548" fill="#F6EFEB" font-family="Inter, Arial, sans-serif" font-size="26" font-weight="700">Approved ideas waiting</text>
  <rect x="1116" y="578" width="356" height="48" rx="16" fill="#17171A" stroke="rgba(255,255,255,0.08)"/>
  <text x="1138" y="608" fill="#F6EFEB" font-family="Inter, Arial, sans-serif" font-size="15" font-weight="700">Invoice Summarizer Assistant</text>
  <text x="1438" y="608" text-anchor="end" fill="#FF9D89" font-family="Inter, Arial, sans-serif" font-size="14">Core software</text>
  <rect x="1116" y="638" width="356" height="48" rx="16" fill="#17171A" stroke="rgba(255,255,255,0.08)"/>
  <text x="1138" y="668" fill="#F6EFEB" font-family="Inter, Arial, sans-serif" font-size="15" font-weight="700">Sensor Router Controller</text>
  <text x="1438" y="668" text-anchor="end" fill="#FF9D89" font-family="Inter, Arial, sans-serif" font-size="14">Hardware lane</text>

  <text x="352" y="756" fill="#B9ACA6" font-family="Inter, Arial, sans-serif" font-size="12" letter-spacing="2.2">SUBMIT IDEA</text>
  <text x="352" y="794" fill="#F6EFEB" font-family="Inter, Arial, sans-serif" font-size="26" font-weight="700">Guided intake with future pack routing</text>

  <rect x="352" y="826" width="330" height="64" rx="20" fill="rgba(239,59,36,0.10)" stroke="rgba(239,59,36,0.24)"/>
  <text x="374" y="852" fill="#FFD8D0" font-family="Inter, Arial, sans-serif" font-size="11" letter-spacing="2.0">PHASE 1 DEFAULT</text>
  <text x="374" y="878" fill="#FFF2EE" font-family="Inter, Arial, sans-serif" font-size="18" font-weight="700">Core Software</text>

  <rect x="696" y="826" width="330" height="64" rx="20" fill="#17171A" stroke="rgba(255,255,255,0.08)"/>
  <text x="718" y="852" fill="#B9ACA6" font-family="Inter, Arial, sans-serif" font-size="11" letter-spacing="2.0">FUTURE PACK</text>
  <text x="718" y="878" fill="#FFF2EE" font-family="Inter, Arial, sans-serif" font-size="18" font-weight="700">Game Dev</text>

  <rect x="1040" y="826" width="330" height="64" rx="20" fill="#17171A" stroke="rgba(255,255,255,0.08)"/>
  <text x="1062" y="852" fill="#B9ACA6" font-family="Inter, Arial, sans-serif" font-size="11" letter-spacing="2.0">FUTURE PACK</text>
  <text x="1062" y="878" fill="#FFF2EE" font-family="Inter, Arial, sans-serif" font-size="18" font-weight="700">Hardware Design</text>

  <rect x="352" y="910" width="354" height="70" rx="18" fill="#17171A" stroke="rgba(255,255,255,0.08)"/>
  <text x="376" y="937" fill="#F6EFEB" font-family="Inter, Arial, sans-serif" font-size="15" font-weight="700">Build lane</text>
  <text x="376" y="962" fill="#B9ACA6" font-family="Inter, Arial, sans-serif" font-size="13">Core software</text>

  <rect x="732" y="826" width="740" height="154" rx="22" fill="#17171A" stroke="rgba(255,255,255,0.08)"/>
  <text x="756" y="856" fill="#B9ACA6" font-family="Inter, Arial, sans-serif" font-size="12" letter-spacing="2.2">IDEA DETAIL</text>
  <text x="756" y="892" fill="#F6EFEB" font-family="Inter, Arial, sans-serif" font-size="24" font-weight="700">Current delivery plan and execution board</text>
  <text x="756" y="922" fill="#B9ACA6" font-family="Inter, Arial, sans-serif" font-size="14">Status: Approved  •  Lane: Core Software  •  MVP ETA: Mar 29</text>
  <rect x="756" y="940" width="154" height="28" rx="14" fill="#EF3B24"/>
  <text x="833" y="959" text-anchor="middle" fill="#FFF5F2" font-family="Inter, Arial, sans-serif" font-size="12" font-weight="700">Backlog</text>
  <rect x="922" y="940" width="154" height="28" rx="14" fill="#121216" stroke="rgba(255,255,255,0.1)"/>
  <text x="999" y="959" text-anchor="middle" fill="#F2E8E3" font-family="Inter, Arial, sans-serif" font-size="12" font-weight="700">Board</text>
  <rect x="1088" y="940" width="154" height="28" rx="14" fill="#121216" stroke="rgba(255,255,255,0.1)"/>
  <text x="1165" y="959" text-anchor="middle" fill="#F2E8E3" font-family="Inter, Arial, sans-serif" font-size="12" font-weight="700">Activity</text>
  <rect x="1254" y="940" width="194" height="28" rx="14" fill="#121216" stroke="rgba(255,255,255,0.1)"/>
  <text x="1351" y="959" text-anchor="middle" fill="#F2E8E3" font-family="Inter, Arial, sans-serif" font-size="12" font-weight="700">Pack Signals</text>
  <text x="1274" y="986" fill="#B9ACA6" font-family="Inter, Arial, sans-serif" font-size="12">gameplay, sensors, pcb, realtime, ai art</text>
</svg>
